<?xml version="1.0" standalone="no"?>
<svg xmlns:xlink="http://www.w3.org/1999/xlink" id="wave" style="transform:rotate(0deg); transition: 0.3s" viewBox="0 0 1440 490" version="1.1" xmlns="http://www.w3.org/2000/svg"><defs><linearGradient id="sw-gradient-0" x1="0" x2="0" y1="1" y2="0"><stop stop-color="rgba(227, 160, 8, 1)" offset="0%"/><stop stop-color="rgba(159, 88, 10, 1)" offset="100%"/></linearGradient></defs><path style="transform:translate(0, 0px); opacity:1" fill="url(#sw-gradient-0)" d="M0,49L14.1,89.8C28.2,131,56,212,85,228.7C112.9,245,141,196,169,179.7C197.6,163,226,180,254,204.2C282.4,229,311,261,339,245C367.1,229,395,163,424,147C451.8,131,480,163,508,171.5C536.5,180,565,163,593,155.2C621.2,147,649,147,678,138.8C705.9,131,734,114,762,130.7C790.6,147,819,196,847,212.3C875.3,229,904,212,932,212.3C960,212,988,229,1016,253.2C1044.7,278,1073,310,1101,269.5C1129.4,229,1158,114,1186,114.3C1214.1,114,1242,229,1271,253.2C1298.8,278,1327,212,1355,196C1383.5,180,1412,212,1440,236.8C1468.2,261,1496,278,1525,236.8C1552.9,196,1581,98,1609,106.2C1637.6,114,1666,229,1694,294C1722.4,359,1751,376,1779,318.5C1807.1,261,1835,131,1864,130.7C1891.8,131,1920,261,1948,294C1976.5,327,2005,261,2019,228.7L2032.9,196L2032.9,490L2018.8,490C2004.7,490,1976,490,1948,490C1920,490,1892,490,1864,490C1835.3,490,1807,490,1779,490C1750.6,490,1722,490,1694,490C1665.9,490,1638,490,1609,490C1581.2,490,1553,490,1525,490C1496.5,490,1468,490,1440,490C1411.8,490,1384,490,1355,490C1327.1,490,1299,490,1271,490C1242.4,490,1214,490,1186,490C1157.6,490,1129,490,1101,490C1072.9,490,1045,490,1016,490C988.2,490,960,490,932,490C903.5,490,875,490,847,490C818.8,490,791,490,762,490C734.1,490,706,490,678,490C649.4,490,621,490,593,490C564.7,490,536,490,508,490C480,490,452,490,424,490C395.3,490,367,490,339,490C310.6,490,282,490,254,490C225.9,490,198,490,169,490C141.2,490,113,490,85,490C56.5,490,28,490,14,490L0,490Z"/></svg>